PathFileType	4	(X/Y/Z)	C:\Documents and Settings\user\My Documents\MotionFiles\BioEngCompLab_Data\Delaware\Subject 2\running_3001_smoothed.trc																																																																																																																									
DataRate	CameraRate	NumFrames	NumMarkers	Units	OrigDataRate	OrigDataStartFrame	OrigNumFrames																																																																																																																					
60	60	5	41	mm	60	301	600																																																																																																																					
Frame#	Time	R.ASIS			L.ASIS			V.Sacral			R.Thigh.Upper			R.Thigh.Front			R.Thigh.Rear			L.Thigh.Upper			L.Thigh.Front			L.Thigh.Rear			R.Shank.Upper			R.Shank.Front			R.Shank.Rear			L.Shank.Upper			L.Shank.Front			L.Shank.Rear			R.Heel			R.Midfoot.Sup			R.Midfoot.Lat			R.Toe.Tip			L.Heel			L.Midfoot.Sup			L.Midfoot.Lat			L.Toe.Tip			Sternum			R.Acromium			L.Acromium			R.Bicep			L.Bicep			R.Elbow			L.Elbow			R.Wrist.Med			R.Wrist.Lat			L.Wrist.Med			L.Wrist.Lat			R.Toe.Lat			R.Toe.Med			L.Toe.Lat			L.Toe.Med			R.Temple			L.Temple			Top.Head		
		X1	Y1	Z1	X2	Y2	Z2	X3	Y3	Z3	X4	Y4	Z4	X5	Y5	Z5	X6	Y6	Z6	X7	Y7	Z7	X8	Y8	Z8	X9	Y9	Z9	X10	Y10	Z10	X11	Y11	Z11	X12	Y12	Z12	X13	Y13	Z13	X14	Y14	Z14	X15	Y15	Z15	X16	Y16	Z16	X17	Y17	Z17	X18	Y18	Z18	X19	Y19	Z19	X20	Y20	Z20	X21	Y21	Z21	X22	Y22	Z22	X23	Y23	Z23	X24	Y24	Z24	X25	Y25	Z25	X26	Y26	Z26	X27	Y27	Z27	X28	Y28	Z28	X29	Y29	Z29	X30	Y30	Z30	X31	Y31	Z31	X32	Y32	Z32	X33	Y33	Z33	X34	Y34	Z34	X35	Y35	Z35	X36	Y36	Z36	X37	Y37	Z37	X38	Y38	Z38	X39	Y39	Z39	X40	Y40	Z40	X41	Y41	Z41

301	5.000000	848.233220	966.565490	-55.007540	839.177800	976.064210	-307.314610	647.088320	987.389650	-190.689150	781.059630	652.697450	-7.803930	859.167600	596.350830	-61.987260	757.644290	554.269290	-11.432850	930.574280	704.191410	-347.699620	977.702760	665.234560	-263.299930	938.449400	574.196470	-314.989750	687.671570	443.655550	-25.416260	629.385560	381.889710	-72.534420	601.864070	447.709590	-28.205910	915.907040	406.732390	-300.452640	955.544070	328.328280	-236.697020	879.689210	345.066620	-299.449070	313.086910	519.837520	-117.172780	302.431920	375.356230	-159.458510	287.427640	406.011080	-58.808730	286.568850	235.178710	-133.053650	715.122130	68.530850	-203.222690	858.268070	64.446200	-150.977890	850.396360	52.380370	-253.177800	1003.828430	69.012040	-184.013310	906.074040	1308.696040	-234.917050	852.027590	1412.871460	-4.130080	761.520510	1416.022340	-408.719510	757.132450	1239.303100	80.970540	0.000000	0.000000	0.000000	718.343380	1154.527100	127.333080	598.216490	1160.121340	-503.515320	921.289860	999.855160	87.673250	925.711000	1013.314700	26.479560	758.018740	954.599060	-511.092800	788.507750	981.815610	-452.108180	263.509460	312.620700	-51.905120	259.830410	307.157070	-167.511750	929.141600	41.050050	-265.800450	933.212220	40.331630	-152.080610	985.874940	1545.104130	-170.475880	980.743290	1546.615360	-312.563170	1049.444580	1623.421140	-259.650270	
302	5.017000	843.162290	962.979430	-55.517670	835.081670	972.951600	-308.401370	642.375120	985.830140	-192.549330	801.878910	654.853210	-6.018530	884.037410	606.397340	-61.635960	790.239260	554.155580	-8.623720	910.331730	692.206730	-346.522030	957.489200	650.513790	-262.381440	913.204590	562.348880	-315.168400	734.358760	439.636410	-23.431560	677.872740	378.470520	-72.528760	648.351440	440.786320	-25.460980	878.933530	395.402190	-299.755460	911.823550	314.766510	-234.508790	837.819270	336.878570	-298.616120	351.770540	503.744230	-115.507420	352.183410	359.688020	-157.403080	338.642460	389.142120	-56.353540	348.500340	222.102310	-129.788640	646.769840	70.675440	-203.441930	791.081180	62.434600	-150.761490	781.766910	49.899090	-253.034010	937.676700	59.892440	-183.500920	903.438660	1302.902590	-230.210800	843.211240	1409.718630	-3.237400	767.418950	1410.318360	-412.246340	739.671570	1239.202760	78.618450	0.000000	0.000000	0.000000	697.554810	1155.167850	124.002540	628.375060	1140.507570	-511.799650	885.692260	978.440250	94.736910	893.368040	988.939210	32.914890	802.998840	947.756160	-509.701840	827.402280	977.264530	-448.851260	322.829860	295.563810	-48.731270	315.477200	289.380890	-164.295150	860.874020	35.970700	-266.083220	865.942750	36.373870	-151.882520	985.172000	1541.605100	-169.012300	980.901490	1543.104250	-311.122440	1049.911380	1619.565670	-257.691860	
303	5.033000	839.225770	963.267090	-56.203230	831.904110	972.092470	-309.656800	638.952760	987.872620	-194.161270	823.370120	663.248470	-4.754700	908.372010	623.250550	-62.634930	823.482790	561.805600	-6.940500	885.853880	682.061890	-345.362240	931.987370	636.485900	-261.012630	882.328920	552.598390	-315.603490	780.684450	441.493190	-22.918380	728.211240	379.173310	-74.364940	695.315430	436.589940	-24.249250	834.842220	385.632780	-299.583560	862.128420	303.453220	-233.716570	789.880620	330.092320	-298.278290	391.290250	478.844670	-114.122400	406.668400	337.161990	-156.349440	393.433930	364.284180	-54.989780	419.916660	204.063860	-128.026430	579.287170	73.914210	-204.002960	724.306030	62.261570	-151.338180	713.388000	48.390870	-253.368440	869.881040	53.186160	-183.424090	901.701420	1303.150880	-225.746840	832.566960	1411.040280	-2.393780	774.432740	1410.040650	-414.578310	720.179690	1244.201050	75.705660	0.000000	0.000000	0.000000	674.112060	1161.176510	119.659210	658.181580	1129.006350	-516.728640	848.067870	967.509770	99.808330	859.650760	976.410280	38.087400	848.311220	952.282410	-504.140660	867.001530	984.537290	-442.544800	388.984250	271.198790	-47.228400	378.845670	264.756320	-162.438480	792.144530	32.389480	-266.750240	798.404720	34.701310	-152.024310	984.184810	1541.706670	-166.736270	980.794980	1543.354000	-308.956670	1050.044920	1619.411250	-254.863490	
304	5.050000	836.911380	967.661680	-57.097760	830.195800	973.454410	-310.978970	637.242980	993.223080	-195.255540	844.400150	677.237060	-4.026230	931.080140	645.733700	-64.626180	855.226870	576.547300	-6.485870	858.034910	675.181150	-344.637050	902.770200	624.850040	-260.035030	846.992800	546.462340	-316.466710	824.413150	449.210570	-23.880330	778.241520	383.938690	-77.598370	740.803470	435.456850	-24.738820	785.191530	379.697480	-300.465120	808.246640	296.187990	-234.921920	737.409300	326.726990	-298.961580	432.460850	445.929380	-113.514880	465.763890	309.252290	-156.189220	451.524140	333.312500	-54.762410	499.291660	183.464290	-127.553360	514.114140	79.586010	-205.176680	659.076600	63.618440	-152.774870	646.521970	47.998120	-254.308910	801.715150	48.408710	-183.760760	900.889770	1308.448000	-221.434540	820.806760	1416.420780	-1.631360	782.100710	1414.831050	-415.870880	699.479860	1253.946040	72.050720	0.000000	0.000000	0.000000	648.716430	1172.453980	114.043040	686.339540	1125.145630	-518.746400	810.220700	966.795590	102.645360	826.403500	975.289430	41.771770	891.403320	967.671940	-494.709410	904.782900	1003.156370	-433.668880	460.983150	242.094470	-47.139010	449.369870	235.463070	-161.744190	724.026730	29.931550	-267.804990	731.263550	34.203610	-152.488830	982.916870	1545.490360	-163.682210	980.553040	1547.465820	-306.086610	1049.791750	1623.143190	-251.147800	
305	5.067000	836.414490	975.914180	-58.191430	830.337160	976.967410	-312.188230	637.515260	1001.368590	-195.770170	863.866270	695.374020	-3.837360	951.284670	671.828060	-67.149800	883.709050	596.534480	-7.161410	827.904170	672.840210	-344.515590	871.551510	617.137880	-259.959170	808.543460	545.300110	-317.908690	863.787840	461.360840	-26.081190	826.206050	391.888820	-81.550490	783.334230	436.777190	-26.694190	731.917420	379.601810	-302.723850	752.321720	294.643920	-238.462400	682.322140	328.582150	-300.968720	476.704620	406.216830	-114.011900	529.687740	277.842710	-156.739650	513.199520	298.342470	-55.588520	584.939450	162.924440	-128.028490	452.552490	89.039600	-207.264910	596.184880	66.440010	-155.115360	581.960450	49.052640	-255.953050	734.040890	44.957320	-184.467190	900.843200	1317.533450	-216.978440	808.848630	1425.157350	-1.066980	790.159610	1423.726930	-416.235930	678.642400	1267.753170	67.429660	0.000000	0.000000	0.000000	622.638000	1188.394410	106.916980	712.206850	1127.476930	-518.497990	773.686280	974.809630	103.354420	794.757450	983.413760	43.927060	930.232850	991.824950	-482.320190	938.483640	1030.828740	-423.031250	538.115600	211.101240	-48.068370	526.513310	204.119340	-161.922680	657.113340	28.327940	-269.229770	664.919560	34.152480	-153.312030	981.407350	1552.668210	-159.961500	980.311400	1555.127320	-302.581180	1049.105220	1630.533080	-246.603990	
